HIERARCHY
ROOT Hips
{
     OFFSET 95.28800 94.76050 -79.98110
     CHANNELS 6 Xposition Yposition Zposition Zrotation Xrotation Yrotation
     JOINT Spine
     {
          OFFSET -0.00000 11.89050 -0.00000
          CHANNELS 3 Zrotation Xrotation Yrotation
          JOINT Spine1
          {
               OFFSET 0.00000 25.65740 0.12766
               CHANNELS 3 Zrotation Xrotation Yrotation
               JOINT HEad
               {
                    OFFSET 0.00000 8.73416 0.01134
                    CHANNELS 3 Zrotation Xrotation Yrotation
                    End Site
                    {
                         OFFSET -0.29000 12.77420 2.51395
                    }
               }
               JOINT LeftShoulder1
               {
                    OFFSET 8.99000 -0.36225 -0.22000
                    CHANNELS 3 Zrotation Xrotation Yrotation
                    JOINT LeftArm
                    {
                         OFFSET 10.28270 -0.00338 0.32212
                         CHANNELS 3 Zrotation Xrotation Yrotation
                         JOINT LeftForeArm
                         {
                              OFFSET 32.76690 0.09914 -1.42434
                              CHANNELS 3 Zrotation Xrotation Yrotation
                              JOINT LeftHand
                              {
                                   OFFSET 27.56430 0.08536 1.02216
                                   CHANNELS 3 Zrotation Xrotation Yrotation
                                   End Site
                                   {
                                        OFFSET 16.74430 -0.60000 1.50291
                                   }
                              }
                         }
                    }
               }
               JOINT RightShoulder
               {
                    OFFSET -8.99000 -0.36225 -0.22000
                    CHANNELS 3 Zrotation Xrotation Yrotation
                    JOINT RightArm
                    {
                         OFFSET -10.28270 -0.00338 0.32212
                         CHANNELS 3 Zrotation Xrotation Yrotation
                         JOINT RightForeArm
                         {
                              OFFSET -32.89710 0.09914 -1.42434
                              CHANNELS 3 Zrotation Xrotation Yrotation
                              JOINT RightHand
                              {
                                   OFFSET -27.49210 0.08536 1.02216
                                   CHANNELS 3 Zrotation Xrotation Yrotation
                                   End Site
                                   {
                                        OFFSET -16.63120 -0.60000 1.50291
                                   }
                              }
                         }
                    }
               }
          }
     }
     JOINT LeftUpLeg
     {
          OFFSET 8.94580 -8.66707 0.10165
          CHANNELS 3 Zrotation Xrotation Yrotation
          JOINT LeftLeg
          {
               OFFSET -0.00000 -44.42270 1.37270
               CHANNELS 3 Zrotation Xrotation Yrotation
               JOINT LeftFoot
               {
                    OFFSET -0.25355 -42.09240 -1.46059
                    CHANNELS 3 Zrotation Xrotation Yrotation
                    JOINT LeftToes
                    {
                         OFFSET -0.04000 -4.41509 8.49910
                         CHANNELS 3 Zrotation Xrotation Yrotation
                         End Site
                         {
                              OFFSET 0.08000 -0.04745 9.77979
                         }
                    }
               }
          }
     }
     JOINT RightUpLeg
     {
          OFFSET -8.94580 -8.66707 0.10165
          CHANNELS 3 Zrotation Xrotation Yrotation
          JOINT RightLeg
          {
               OFFSET -0.00000 -44.42270 1.37270
               CHANNELS 3 Zrotation Xrotation Yrotation
               JOINT RightFoot
               {
                    OFFSET 0.25355 -42.09240 -1.46059
                    CHANNELS 3 Zrotation Xrotation Yrotation
                    JOINT RightToes
                    {
                         OFFSET 0.04000 -4.41509 8.49910
                         CHANNELS 3 Zrotation Xrotation Yrotation
                         End Site
                         {
                              OFFSET -0.08000 -0.13745 9.77979
                         }
                    }
               }
          }
     }
}
MOTION
Frames: 12
Frame Time: 0.01667
69.34990 87.04710 -61.60560 9.92892 4.80652 7.93979 0.44487 4.94914 -2.61486 -4.58330 9.45899 -3.94887 5.67563 -16.65310 -18.72310 -0.00000 -0.00000 0.00000 -54.34610 11.32120 -27.75740 -18.08260 28.28210 -47.85160 5.55594 9.67997 -0.87718 17.71210 1.17297 3.35394 12.44680 -26.24480 3.08039 11.43130 27.64000 93.21830 -5.55712 9.68432 0.87760 20.64010 4.81090 -4.53442 -6.67116 37.63150 12.69900 -19.87410 25.95740 5.69687 1.61621 -38.05430 3.61648 -8.29249 -33.62180 -10.74870 4.93220 75.32960 -10.50730 -6.13945 -32.37050 -1.74270 -2.16338 -5.15440 -3.74562 
67.76470 87.53700 -59.13000 10.40010 5.36137 0.08880 0.28144 4.71799 -1.57603 -3.21636 9.07169 -2.23069 3.16600 -18.06650 -16.35640 -0.00000 -0.00000 0.00000 -55.05940 7.20813 -21.04860 -19.63830 27.92410 -37.26330 5.55594 9.67997 -0.87718 18.00060 1.24025 3.61800 17.10150 -32.39020 13.51130 13.09000 30.13850 94.02760 -5.55712 9.68432 0.87760 16.72510 2.75445 -3.19733 -5.31219 45.82420 9.59063 -20.21290 24.22810 5.49771 1.34638 -33.97050 3.95301 -5.74495 -31.76430 -10.16380 0.67068 71.07960 -4.93566 -7.94653 -31.86120 -2.11265 -5.60233 -8.54356 -1.88738 
66.09920 87.92170 -56.66340 11.11210 5.80396 -7.62117 -0.06099 4.65492 -0.38632 -2.06229 9.09429 -0.24762 0.80209 -19.98260 -14.28880 -0.00000 -0.00000 0.00000 -54.53870 3.92051 -14.26580 -20.42580 26.81780 -27.37840 5.55594 9.67997 -0.87718 18.25630 1.31572 3.92311 25.10870 -37.79730 26.41780 15.19650 33.10110 94.29640 -5.55712 9.68432 0.87760 13.10480 -0.52372 -1.25830 -4.19381 54.72000 6.23193 -20.40510 21.16250 5.01654 0.96476 -29.33550 2.88866 -3.48776 -29.36380 -9.53818 -3.17490 66.72680 0.87023 -9.65803 -31.94130 -2.50458 -7.53730 -10.47810 -0.75743 
64.34890 88.25530 -54.21520 12.01490 6.06448 -15.00840 -0.58610 4.75412 0.91115 -1.23318 9.47537 1.92533 -1.31300 -22.25320 -12.59430 -0.00000 -0.00000 0.00000 -52.98390 1.79902 -7.37896 -20.58840 25.65480 -19.72220 5.55594 9.67997 -0.87718 18.34580 1.37655 4.19459 36.34860 -41.26370 41.24650 17.50200 36.27940 94.37700 -5.55712 9.68432 0.87760 10.03120 -4.95609 0.99154 -2.83578 63.80870 2.65568 -20.36120 17.02420 4.28824 0.69291 -24.58050 1.26563 -1.73164 -26.48980 -8.91044 -6.36580 62.20750 6.58764 -11.16790 -32.38040 -2.89650 -8.20856 -11.08270 -0.14454 
62.56180 88.44740 -51.81680 13.01430 6.11779 -21.88860 -1.24688 4.99108 2.26016 -0.79809 10.11720 4.20971 -3.12467 -24.68410 -11.32200 -0.00000 -0.00000 0.00000 -50.68690 0.70021 -0.51766 -20.69930 25.12470 -14.86800 5.55594 9.67997 -0.87718 18.19660 1.40733 4.38384 49.03210 -42.00360 56.06650 19.73290 39.28770 94.55900 -5.55712 9.68432 0.87760 7.67812 -10.57430 3.24135 -0.11371 72.94860 -1.96292 -20.09040 12.00690 3.37641 0.58334 -19.91260 -0.42507 -0.59618 -23.43380 -8.32795 -8.91863 57.87680 12.01990 -12.31320 -33.11480 -3.25497 -7.95955 -10.68000 0.12026 
60.66430 88.71030 -49.36500 13.98620 6.00774 -28.08280 -1.91090 5.32868 3.58455 -0.76954 10.89620 6.53122 -4.62014 -27.06470 -10.49420 -0.00000 -0.00000 0.00000 -47.90140 0.31622 6.02728 -21.15230 25.40550 -12.53340 5.55594 9.67997 -0.87718 17.80950 1.40351 4.47254 60.63730 -40.41520 68.53800 21.71130 41.78670 94.91280 -5.55712 9.68432 0.87760 6.12649 -17.06740 5.13821 7.97283 81.15540 -11.36400 -19.62730 6.84070 2.44146 0.62351 -15.42090 -2.08971 -0.00154 -20.03500 -7.80732 -10.71350 53.26970 16.79230 -12.86680 -33.68320 -3.46341 -7.17600 -9.68919 0.15620 
58.59580 89.08460 -46.79450 14.93270 5.75387 -33.47370 -2.65361 5.71970 4.83419 -1.12838 11.68670 8.82163 -5.81237 -29.19370 -10.10860 -0.00000 -0.00000 0.00000 -44.85510 0.39339 11.88170 -21.97360 26.28710 -12.06010 5.55594 9.67997 -0.87718 17.25460 1.37088 4.46720 69.85630 -37.78530 77.66000 23.41050 43.67420 95.30780 -5.55712 9.68432 0.87760 5.29044 -24.19710 6.34763 52.07270 87.05160 -56.12880 -18.88450 2.06807 1.58751 0.81942 -11.33210 -3.92407 0.04522 -16.32630 -7.34898 -11.74410 48.36350 20.59050 -12.63710 -33.81280 -3.42461 -6.24804 -8.56317 0.05154 
56.30050 89.56620 -44.05110 15.85610 5.37570 -37.98780 -3.52901 6.12029 5.97088 -1.81863 12.38330 11.01570 -6.71706 -30.90230 -10.13630 -0.00000 -0.00000 0.00000 -41.77110 0.74625 16.70640 -23.00030 27.47810 -12.78640 5.55594 9.67997 -0.87718 16.65690 1.32265 4.39249 76.78240 -35.36760 83.77290 24.92010 45.06510 95.55110 -5.55712 9.68432 0.87760 4.99517 -31.62480 6.59918 137.06700 85.48890 -141.12199 -17.60740 -1.82285 0.90071 1.20570 -8.31635 -6.29031 -0.40131 -12.37490 -6.91129 -12.06570 43.26170 23.14990 -11.54580 -33.25830 -3.08991 -5.54408 -7.74334 -0.11978 
53.73340 90.14510 -41.11000 16.77790 4.87826 -41.58630 -4.61925 6.50767 6.96169 -2.76729 12.91880 13.04720 -7.33542 -32.07160 -10.51970 -0.00000 -0.00000 0.00000 -38.85620 1.23612 20.29280 -24.03740 28.75210 -14.24750 5.55594 9.67997 -0.87718 16.17550 1.27567 4.28553 81.93580 -33.96900 87.56750 26.34630 46.13800 95.52060 -5.55712 9.68432 0.87760 4.89903 -38.87140 5.85130 150.22501 82.93590 -153.56599 -15.45120 -4.46429 0.44642 1.73488 -7.70728 -9.47638 -1.25837 -8.27830 -6.41508 -11.78070 38.15000 24.27190 -9.65719 -31.76820 -2.48676 -5.40119 -7.63696 -0.29648 
50.88360 90.81040 -37.97960 17.70050 4.28062 -44.24670 -5.94766 6.88701 7.76272 -3.88900 13.26810 14.84690 -7.64674 -32.64200 -11.17280 -0.00000 -0.00000 0.00000 -36.29370 1.77275 22.58510 -24.91000 29.96480 -16.23030 5.55594 9.67997 -0.87718 15.97690 1.24733 4.19149 85.65770 -34.01700 89.54700 27.71410 47.01390 95.23040 -5.55712 9.68432 0.87760 4.48914 -45.35680 4.34652 147.32201 82.44230 -149.12500 -12.31360 -5.75377 0.22569 2.03484 -11.19620 -13.20030 -2.38393 -4.19516 -5.77840 -11.04170 33.32600 23.86730 -7.17150 -29.11640 -1.72828 -6.13337 -8.62239 -0.45223 
47.78570 91.53400 -34.67610 18.56660 3.65163 -45.96830 -7.35935 7.26729 8.32194 -5.08131 13.43420 16.34230 -7.61388 -32.61800 -11.98660 -0.00000 -0.00000 0.00000 -34.24790 2.32128 23.63950 -25.46440 31.02820 -18.73200 5.55594 9.67997 -0.87718 16.20730 1.25363 4.15868 87.93950 -35.70780 89.90960 28.89940 47.70870 94.84870 -5.55712 9.68432 0.87760 3.27466 -50.50910 2.44790 125.94500 83.27620 -125.37100 -8.75404 -5.93321 0.15303 1.50342 -19.17550 -16.27350 -3.55261 -0.36986 -4.96652 -10.03410 29.27270 22.02130 -4.38864 -25.19450 -0.98902 -8.04251 -11.05420 -0.64004 
44.50170 92.25330 -31.19020 19.25290 3.09920 -46.80650 -8.50943 7.61327 8.61312 -6.23020 13.42590 17.45910 -7.20075 -32.06330 -12.84150 -0.00000 -0.00000 0.00000 -32.87090 2.90318 23.56340 -25.55670 31.87280 -21.88530 5.55594 9.67997 -0.87718 16.96660 1.30899 4.23297 88.35810 -39.05900 88.48210 29.58530 48.12490 94.69580 -5.55712 9.68432 0.87760 1.24908 -53.92660 0.49049 84.07250 82.11730 -80.64420 -5.96078 -5.54439 0.12856 0.26805 -28.73210 -17.47580 -4.49573 2.88571 -4.02474 -8.91864 26.68330 19.05380 -1.60965 -20.12630 -0.43583 -11.34560 -15.13130 -1.04057 
